<?xml version="1.0" encoding="UTF-8"?>
<svg version="1.1" xmlns="http://www.w3.org/2000/svg" width="490" height="490">
  <path d="M0 0 C0.86625 0.4125 1.7325 0.825 2.625 1.25 C14.42903008 7.5838698 20.85589854 17.56769563 25 30 C26.17288987 42.76265956 25.63118976 53.56747101 17.375 63.8125 C11.68247775 69.83548702 4.34509823 73.63234774 -3.953125 74.203125 C-14.68003956 74.35564037 -22.08326248 72.50988163 -30 65 C-35.04580825 58.83006231 -37.36703817 52.20296425 -36.9375 44.25 C-36.44878243 40.95968054 -36.06211356 40.0727616 -33.8125 37.4375 C-30.46186103 35.72495119 -28.71255801 35.38124033 -25 36 C-22.3125 37.3125 -22.3125 37.3125 -20 40 C-19.1024545 42.76393684 -18.43869246 45.49401303 -17.87109375 48.34375 C-16.81269439 51.57115613 -15.71474358 52.96865541 -13 55 C-8.29472122 55.89056692 -3.61102688 55.51415751 0.9375 54.0625 C4.97217375 50.02782625 7.16878512 44.69918017 7.5 39 C7.12388164 32.270168 3.63197972 25.76821442 -1 21 C-9.06757425 14.6209878 -17.89294583 12.87411816 -28 14 C-36.89769595 15.90922221 -44.36911037 20.44805796 -49.41015625 28.15625 C-53.89352248 36.76945536 -54.29075617 46.59554743 -52.38671875 56.04296875 C-48.31155472 68.48388801 -38.96574818 78.02961598 -29.125 86.25 C-18.80656644 95.18450164 -9.25725995 107.23674548 -7.76220703 121.22485352 C-6.84171089 137.63699618 -9.83484995 150.39227304 -21 163 C-37.336721 179.36605084 -59.11452645 183.26861689 -81.25732422 183.32128906 C-102.66680448 183.1194415 -125.34657983 180.2996602 -145.73510742 173.43579102 C-146.93716072 173.03204002 -146.93716072 173.03204002 -148.16349792 172.62013245 C-148.76954361 172.41548874 -149.37558929 172.21084503 -150 172 C-152.6155799 222.69425147 -154.0955795 273.75498318 -149.41455078 324.36523438 C-148.9868834 329.03646978 -148.64209738 333.71186313 -148.30859375 338.390625 C-147.22043976 353.36477336 -145.73954164 368.21347512 -143.5 383.0625 C-143.39826477 383.74482697 -143.29652954 384.42715393 -143.19171143 385.13015747 C-141.56030245 400.83315243 -141.56030245 400.83315243 -134 414 C-115.33669199 426.27849211 -87.847844 429.32223858 -66 431 C-64.46315552 431.12810059 -64.46315552 431.12810059 -62.89526367 431.25878906 C-51.7442623 432.10865026 -40.61668881 432.24308994 -29.4375 432.25 C-28.44988678 432.25067474 -27.46227356 432.25134949 -26.44473267 432.25204468 C4.95607784 432.2181547 45.80590369 432.11126814 73 414 C80.70659566 405.30537925 81.04974197 392.56425172 82.37304688 381.56835938 C84.50763378 365.16151359 89.70397008 349.64064463 103 339 C109.31009972 334.75570673 115.93556035 331.11314439 122.6171875 327.4921875 C133.17353182 321.759095 142.75346289 315.91517526 151 307 C151.54140625 306.42894531 152.0828125 305.85789062 152.640625 305.26953125 C169.5692251 286.83207766 173.165494 262.97508914 172.19970703 238.76171875 C171.1062791 223.64086695 165.21462511 210.27380086 154 200 C151.4346536 198.21583051 148.94969038 197.01266816 146 196 C145.36449219 195.77828125 144.72898437 195.5565625 144.07421875 195.328125 C136.01486171 192.93777462 128.52103145 193.05971782 120.97265625 196.8671875 C115.79716043 199.83925441 113.33940442 202.49732909 111 208 C110.54157709 211.18354663 110.54157709 211.18354663 110.58349609 214.55834961 C110.56692963 215.84507065 110.55036316 217.13179169 110.53329468 218.45750427 C110.52983448 219.85578368 110.52655371 221.25406354 110.5234375 222.65234375 C110.50908716 224.11325992 110.4933231 225.57416282 110.47622681 227.03504944 C110.4344124 230.88786108 110.40943332 234.74059085 110.38873291 238.59356689 C110.35305957 244.68229191 110.29195003 250.77085747 110.23257828 256.85939026 C110.21815706 258.34574459 110.20418726 259.83210336 110.19067001 261.31846619 C110.0424084 277.28533042 109.62177085 293.22146402 108.125 309.125 C108.05954987 309.85002213 107.99409973 310.57504425 107.92666626 311.32203674 C107.45149388 315.55461855 106.5688462 318.57917466 104 322 C100.86128812 323.56935594 98.46144178 323.35201103 95 323 C92.13602611 320.97496795 90.2721766 319.40659328 89.58569336 315.85888672 C89.46985523 313.30526502 89.51544539 310.80375571 89.625 308.25 C89.63917969 307.3940625 89.65335937 306.538125 89.66796875 305.65625 C89.75814537 301.68847889 90.0186107 297.80046637 90.50318909 293.86222839 C91.00625601 289.36769837 91.14508593 284.94513 91.1418457 280.42602539 C91.14532013 279.62147415 91.14879456 278.81692291 91.15237427 277.98799133 C91.15966993 276.25787595 91.16504788 274.52775158 91.16866493 272.79762459 C91.17590401 270.05107906 91.19162308 267.30470471 91.21000671 264.55821228 C91.2621415 256.75505861 91.31044207 248.95200595 91.32592773 241.14868164 C91.33605011 236.35945267 91.36547133 231.57066737 91.40724754 226.7816143 C91.41949071 224.96733401 91.42469113 223.15299095 91.42244911 221.33867073 C91.41044061 208.45568215 92.35771075 198.40695711 100.890625 188.10546875 C110.22900722 178.78437983 120.89650507 175.7389054 133.6875 175.5 C146.9060899 175.549085 158.17335209 178.71091489 168 188 C168.886875 188.825 169.77375 189.65 170.6875 190.5 C171.450625 191.325 172.21375 192.15 173 193 C173.45979248 193.49669189 173.91958496 193.99338379 174.39331055 194.50512695 C189.34891212 211.23574352 192.26734469 234.77161062 191.18457031 256.37646484 C189.65028682 278.18520884 182.43628276 299.32842184 168 316 C167.36964844 316.78503906 166.73929687 317.57007813 166.08984375 318.37890625 C155.87243969 330.58249726 142.67453058 338.09103377 128.65209961 345.23364258 C118.13477257 350.67621802 108.31705808 356.83643772 104.14453125 368.36328125 C102.46707529 374.24714963 101.70042041 380.1849125 100.98193359 386.2434082 C98.90366435 403.74948603 96.53143757 418.62536548 82.0625 430.1875 C70.8433939 437.89680378 57.15269123 441.20038468 44 444 C42.83815186 444.25112549 42.83815186 444.25112549 41.65283203 444.50732422 C16.89489348 449.73787462 -7.83182956 451.27521227 -33.0625 451.25 C-34.06024445 451.24931519 -35.05798889 451.24863037 -36.08596802 451.2479248 C-38.9441562 451.24144011 -41.80204826 451.22509482 -44.66015625 451.203125 C-45.51512695 451.19873413 -46.37009766 451.19434326 -47.25097656 451.18981934 C-51.61470703 451.13828267 -55.69764311 450.80901042 -60 450 C-62.01974348 449.89147647 -64.03976471 449.78483993 -66.06103516 449.70996094 C-75.07768023 449.36971018 -83.71902696 448.27527116 -92.55517578 446.48876953 C-95.31271426 445.93748213 -98.07597581 445.42093254 -100.83984375 444.90234375 C-116.17664753 441.95272546 -131.44644423 438.85965968 -144 429 C-144.83917969 428.38511719 -144.83917969 428.38511719 -145.6953125 427.7578125 C-156.18512973 419.69277714 -159.2253307 407.37808148 -160.9375 394.8125 C-161.09661865 393.68287842 -161.2557373 392.55325684 -161.41967773 391.3894043 C-167.69765292 345.05139599 -171.2744727 298.51111324 -171.25 251.75 C-171.24940582 250.51519897 -171.24881165 249.28039795 -171.248819946 248.00817871 C-171.20320777 223.634488 -170.47680088 199.27755279 -168.86254883 174.95556641 C-168.74356391 173.11652757 -168.63252271 171.27696116 -168.52856445 169.43701172 C-168.37310069 166.69104075 -168.1950115 163.94736219 -168.01171875 161.203125 C-167.96987961 160.3916803 -167.92804047 159.5802356 -167.88493347 158.74420166 C-167.41715473 152.37354429 -165.60096423 146.90243963 -161.28125 142.08203125 C-145.8520011 131.0853078 -126.57050297 128.70226608 -108.1875 126.875 C-106.59285376 126.70945106 -104.99829047 126.54310115 -103.40380859 126.37597656 C-100.30636144 126.05275642 -97.20839202 125.73552151 -94.10986328 125.42285156 C-90.73483885 125.07986402 -87.36506716 124.70327697 -83.99609375 124.3046875 C-75.3497052 123.30086532 -66.76900601 122.78716565 -58.0625 122.6875 C-57.13131348 122.66977539 -56.20012695 122.65205078 -55.24072266 122.63378906 C-50.34349052 122.63921736 -46.95815931 122.77658883 -43 126 C-41.07136161 128.54229606 -40.99097709 129.78345018 -41.125 133 C-42.12747661 136.43706266 -43.22007827 137.7924151 -46 140 C-49.10874489 141.0362483 -51.44307108 141.18491206 -54.70703125 141.28125 C-55.84366211 141.31782715 -56.98029297 141.3544043 -58.15136719 141.39208984 C-59.96362793 141.44550537 -59.96362793 141.44550537 -61.8125 141.5 C-64.29301974 141.58445286 -66.77349001 141.67037242 -69.25390625 141.7578125 C-70.4361377 141.79938477 -71.61836914 141.84095703 -72.83642578 141.88378906 C-96.04772851 142.73643454 -122.10559521 144.87848575 -144 153 C-130.62764596 166.37235404 -92.06394506 164.35534005 -74.80517578 164.38012695 C-64.79089947 164.25022986 -55.64977636 163.34953765 -46.6875 158.6875 C-44.99173828 157.82705078 -44.99173828 157.82705078 -43.26171875 156.94921875 C-34.86314744 151.9301923 -30.13971329 145.5438026 -26.625 136.4375 C-24.98975132 127.44363226 -25.88956232 119.94842358 -30.8046875 112.12890625 C-33.54351392 108.2377057 -36.01891643 104.78236551 -39.7578125 101.80078125 C-40.49773437 101.20652344 -41.23765625 100.61226563 -42 100 C-42 99.34 -42 98.68 -42 98 C-42.56332031 97.76023437 -43.12664062 97.52046875 -43.70703125 97.2734375 C-57.96593511 89.35452326 -67.21037417 72.24793485 -71.55786133 57.04980469 C-72.32848484 53.47710726 -72.18452499 49.89140947 -72.1875 46.25 C-72.19974609 45.4765625 -72.21199219 44.703125 -72.22460938 43.90625 C-72.25506034 31.80706649 -67.71106306 20.31615558 -60 11 C-44.27063596 -4.10345509 -20.15043873 -9.8294823 0 0 Z " fill="#060606" transform="translate(246,17)"/>
  <path d="M0 0 C0.71381836 0.06541992 1.42763672 0.13083984 2.16308594 0.19824219 C3.82517277 0.35442515 5.48611475 0.52307168 7.14599609 0.70117188 C10.46534016 1.04127544 13.78734353 1.31024043 17.11328125 1.578125 C32.11616655 2.84811876 46.61329155 4.67932307 61.0625 9 C61.72040527 9.19319824 62.37831055 9.38639648 63.05615234 9.58544922 C72.3059039 12.40185666 79.63170602 16.85380902 85.0625 25 C85.52184699 30.60403334 85.29000292 34.21080212 82.0625 39 C77.50188821 43.68807745 72.71895628 46.44540283 66.625 48.6875 C65.83569092 48.98366211 65.04638184 49.27982422 64.2331543 49.58496094 C56.63272511 52.32992003 49.05067861 53.88452583 41.0625 55 C39.81654053 55.1848999 39.81654053 55.1848999 38.54541016 55.37353516 C23.11301023 57.65201255 7.63357233 59.09294724 -7.9375 60 C-9.23445801 60.08024414 -9.23445801 60.08024414 -10.55761719 60.16210938 C-12.78876572 60.28722051 -15.01638094 60.37306103 -17.25 60.4375 C-18.44238281 60.47746094 -19.63476562 60.51742187 -20.86328125 60.55859375 C-24.95431418 59.81524215 -26.41431298 58.23878703 -28.9375 55 C-29.6015625 52.9375 -29.6015625 52.9375 -29.5625 51 C-29.57539063 50.360625 -29.58828125 49.72125 -29.6015625 49.0625 C-28.49374731 45.62175635 -26.80302017 44.16580013 -23.9375 42 C-20.94102014 41.31930083 -17.9995377 41.40379473 -14.9375 41.4375 C-5.01827282 41.26308462 4.76038679 40.45601966 14.61621094 39.38943481 C16.22586401 39.21543726 17.83588795 39.0448315 19.44628906 38.87789917 C32.22427327 37.55046555 44.58907559 35.46662559 56.9375 31.8125 C58.69707031 31.29623047 58.69707031 31.29623047 60.4921875 30.76953125 C61.34039062 30.51558594 62.18859375 30.26164062 63.0625 30 C61.86625 29.54625 60.67 29.0925 59.4375 28.625 C58.76460938 28.36976563 58.09171875 28.11453125 57.3984375 27.8515625 C56.62757813 27.57054687 55.85671875 27.28953125 55.0625 27 C54.19753906 26.67644531 53.33257812 26.35289062 52.44140625 26.01953125 C47.88836376 24.64572305 43.31175343 23.84517773 38.625 23.0625 C37.08803467 22.8003772 37.08803467 22.8003772 35.52001953 22.53295898 C29.2919336 21.52391107 23.08497262 16.80078125 20.25 C15.75794731 20.16122841 15.75794731 20.16122841 14.69404602 20.07066345 C11.26294812 19.78256399 7.83288719 19.5225355 4.39672852 19.30297852 C-6.13455156 18.47647982 -6.13455156 18.47647982 -9.79296875 15.65234375 C-12.74019631 12.00722989 -12.74019631 12.00722989 -12.625 9 C-12.63080078 8.0409375 -12.63080078 8.0409375 -12.63671875 7.0625 C-10.45491957 0.62680185 -6.22613368 -0.61683058 0 0 Z " fill="#060606" transform="translate(265.9375,141)"/>
</svg>