<svg width="194" height="46" viewBox="0 0 194 46" fill="none" xmlns="http://www.w3.org/2000/svg">
<path d="M36.0025 34.6009C36.1224 33.9294 36.7065 33.4404 37.3886 33.4404H44.3842C45.2608 33.4404 45.9243 34.2329 45.7702 35.0959L44.6389 41.432C44.519 42.1035 43.9349 42.5925 43.2528 42.5925H36.2572C35.3806 42.5925 34.717 41.8 34.8711 40.937L36.0025 34.6009Z" fill="white"/>
<path d="M41.7786 39.4244L42.2818 36.6084H38.8622L38.3589 39.4244H41.7786ZM44.3842 30.2723C47.2334 30.2723 49.3896 32.848 48.8888 35.6527L47.7579 41.9888C47.3681 44.1713 45.4696 45.7605 43.2526 45.7605H36.2572C33.497 45.7605 31.3871 43.3431 31.7135 40.642L31.7526 40.3801L32.8836 34.044C33.2733 31.8615 35.1719 30.2723 37.3888 30.2723H44.3842Z" fill="white"/>
<path d="M44.1063 27.1043L48.0767 5.98398H43.9523L39.9819 27.1043H44.1063ZM49.7748 0.351903C52.4205 0.351903 54.4148 2.75619 53.926 5.35628L49.4262 29.2926C49.0508 31.2895 47.307 32.7363 45.2751 32.7363H38.2852C35.7223 32.7363 33.7701 30.4801 34.0948 27.9753L34.134 27.7319L38.633 3.79564C39.0084 1.79868 40.7523 0.351903 42.7842 0.351903H49.7748Z" fill="white"/>
<path d="M32.3985 45.7605C30.5282 45.7605 28.8677 44.4138 28.5698 42.4921L28.545 42.3044L28.455 41.4842C27.9125 36.6461 25.961 21.0783 22.442 11.2785C21.8094 9.51664 21.4448 8.55906 20.7356 6.8413C20.5615 6.41957 20.3308 5.87985 20.1286 5.41128C19.0293 2.86421 20.8878 0.000118127 23.685 -9.83477e-05H30.4962C32.2973 -9.77751e-05 33.8612 1.24168 34.2685 2.99607L43.0934 41.0126C43.657 43.4401 41.8139 45.7605 39.3217 45.7605H32.3985ZM28.5388 6.33598H27.3618C27.7035 7.21022 28.0081 8.03095 28.4055 9.13758C31.894 18.8528 33.8772 33.3795 34.5951 39.4244H36.2204L28.5388 6.33598Z" fill="white"/>
<path d="M23.7702 0C21.6735 3.05045e-05 19.8362 1.41842 19.3234 3.4623L19.2781 3.66236L19.0629 4.69706C17.8251 10.5873 14.149 26.8568 9.42399 37.0347C8.95027 38.0552 8.89182 38.2758 8.5206 38.9467C7.0115 41.6741 8.63397 45.7606 12.447 45.7606H20.4427C22.5569 45.7606 24.3961 44.3123 24.8916 42.2571L33.7164 5.64857C34.4104 2.76996 32.2293 0.000164636 29.2683 0H23.7702ZM19.0567 39.4245H15.2981C20.193 28.738 23.8907 12.4912 25.1927 6.33608H27.0332L19.0567 39.4245Z" fill="white"/>
<path d="M11.5725 0C13.7202 0 15.5688 1.49145 16.0365 3.56886L16.0778 3.77167L22.6146 40.3802C23.1154 43.1849 20.9592 45.7606 18.11 45.7606H11.1146C8.89765 45.7606 6.9991 44.1714 6.60938 41.9889L0.0725411 5.38045C-0.428306 2.57566 1.72797 4.59883e-05 4.5771 0H11.5725ZM12.588 39.4245H16.0076L10.0992 6.33608H6.6795L12.588 39.4245Z" fill="white"/>
<path d="M3.19107 4.8235C3.03696 3.96048 3.70049 3.16797 4.57716 3.16797H11.5727C12.2548 3.16797 12.8389 3.65695 12.9588 4.32847L19.496 40.9369C19.6501 41.8 18.9866 42.5925 18.1099 42.5925H11.1144C10.4322 42.5925 9.84821 42.1035 9.72829 41.432L3.19107 4.8235Z" fill="#75BCE5"/>
<path d="M11.5725 3.16797C12.2546 3.16797 12.8386 3.65698 12.9585 4.32848L19.496 40.937C19.6405 41.7461 19.0663 42.4934 18.2716 42.5835L18.11 42.5925V41.8885C18.5483 41.8884 18.8801 41.4922 18.803 41.0607L12.2655 4.45224C12.2055 4.11649 11.9135 3.87198 11.5725 3.87198H4.57708C4.13879 3.87202 3.80703 4.26826 3.88407 4.69974L10.4216 41.3082C10.4816 41.644 10.7735 41.8885 11.1146 41.8885V42.5925L10.9874 42.587C10.4027 42.5344 9.91051 42.1222 9.75609 41.5557L9.72859 41.432L3.19106 4.82349C3.03697 3.9605 3.70045 3.16801 4.57708 3.16797H11.5725ZM18.11 41.8885V42.5925H11.1146V41.8885H18.11Z" fill="white"/>
<path d="M30.6369 4.90597C30.8505 4.02021 30.1792 3.16797 29.2681 3.16797H23.7704C23.0955 3.16797 22.5169 3.63562 22.3817 4.29686C21.4251 8.97549 17.518 27.1236 12.2977 38.3684C11.913 39.1969 11.7349 39.6812 11.2926 40.4805C10.7813 41.4046 11.3908 42.5925 12.447 42.5925H20.4429C21.0934 42.5925 21.6592 42.1468 21.8117 41.5144L30.6369 4.90597Z" fill="#3B94C8"/>
<path d="M23.6452 3.17347C23.025 3.22722 22.5083 3.6769 22.3815 4.29686C21.4249 8.97551 17.5181 27.1236 12.2979 38.3684C11.9132 39.1969 11.7349 39.6812 11.2927 40.4805C10.7814 41.4046 11.3909 42.5925 12.447 42.5925V41.8885C12.0035 41.8885 11.6192 41.3449 11.9087 40.8215C12.3667 39.9937 12.5711 39.4505 12.9359 38.6647C18.1962 27.3336 22.1168 9.1053 23.0711 4.4378C23.1344 4.1283 23.3913 3.90192 23.7064 3.87473L23.7703 3.87198H29.2683C29.7238 3.87214 30.0591 4.2982 29.9524 4.74099L21.1275 41.3495C21.0513 41.6657 20.768 41.8885 20.4428 41.8885V42.5925L20.5638 42.587C21.1226 42.5391 21.6012 42.1628 21.7786 41.6307L21.8116 41.5145L30.6372 4.90599C30.8506 4.02034 30.1793 3.16813 29.2683 3.16797H23.7703L23.6452 3.17347ZM12.447 41.8885V42.5925H20.4428V41.8885H12.447Z" fill="white"/>
<path d="M40.0075 41.7293C40.11 42.1707 39.7749 42.5925 39.3218 42.5925H32.3983C32.0361 42.5925 31.7336 42.3287 31.6952 41.9685C31.3226 38.4714 29.3264 21.0765 25.4237 10.2081C24.7767 8.40608 24.3944 7.40182 23.6637 5.63205C23.4797 5.18627 23.2411 4.62829 23.0373 4.15608C22.8359 3.68967 23.1773 3.16802 23.6853 3.16802L30.4965 3.16802C30.824 3.16802 31.1082 3.39383 31.1823 3.71283L40.0075 41.7293Z" fill="#0D5D8C"/>
<path d="M32.3985 42.5925C32.0362 42.5925 31.7336 42.3285 31.6952 41.9683C31.3225 38.4708 29.3263 21.0763 25.4237 10.2081C24.7767 8.40608 24.3944 7.40182 23.6637 5.63205C23.4797 5.18627 23.2412 4.62817 23.0374 4.15597C22.8487 3.7187 23.1369 3.2332 23.5922 3.17421L23.685 3.16802H30.4962V3.87203H23.685L23.6843 3.87272C23.6837 3.87369 23.6832 3.87489 23.683 3.87547L23.6837 3.87684C23.8878 4.34976 24.1279 4.91215 24.3141 5.36323C25.0496 7.14451 25.4362 8.15933 26.0865 9.97023C30.0203 20.9253 32.0224 38.3922 32.3951 41.8885H39.3217L30.4962 3.87203V3.16802L30.6172 3.17833C30.8526 3.21917 31.0522 3.37757 31.1452 3.59771L31.1823 3.71253L40.0079 41.729C40.1039 42.1427 39.8152 42.5396 39.4056 42.5877L39.3217 42.5925H32.3985Z" fill="white"/>
<path d="M41.4002 4.31598C41.5253 3.65031 42.1066 3.16806 42.784 3.16806H49.7747C50.6566 3.16806 51.3214 3.96951 51.1585 4.83621L46.6587 28.7725C46.5336 29.4382 45.9523 29.9204 45.2749 29.9204H38.2848C37.403 29.9204 36.7381 29.119 36.901 28.2523L41.4002 4.31598Z" fill="#FF984E"/>
<path d="M45.2748 29.9204H38.2849C37.4032 29.9204 36.7382 29.1191 36.901 28.2525L41.4 4.3162C41.5252 3.65053 42.1067 3.16806 42.784 3.16806H49.7746C50.6013 3.16806 51.237 3.8723 51.1792 4.67439L51.1586 4.83596L46.6588 28.7723C46.5337 29.4379 45.9522 29.9204 45.2748 29.9204ZM45.2748 29.2164C45.6135 29.2164 45.9039 28.9752 45.9665 28.6423L50.4662 4.70602C50.5477 4.27269 50.2155 3.87207 49.7746 3.87207H42.784C42.4453 3.87207 42.1549 4.1133 42.0924 4.44614L37.5926 28.3825C37.5113 28.8157 37.8441 29.2164 38.2849 29.2164H45.2748Z" fill="white"/>
<path d="M36.0025 34.6009C36.1224 33.9294 36.7065 33.4404 37.3886 33.4404H44.3842C45.2608 33.4404 45.9243 34.2329 45.7702 35.0959L44.6389 41.432C44.519 42.1035 43.9349 42.5925 43.2528 42.5925H36.2572C35.3806 42.5925 34.717 41.8 34.8711 40.937L36.0025 34.6009Z" fill="#FF984E"/>
<path d="M43.2527 42.5925H36.2572C35.3806 42.5925 34.7171 41.8 34.8712 40.937L36.0029 34.6009C36.1228 33.9294 36.7068 33.4404 37.3889 33.4404H44.3843L44.5459 33.4493C45.3406 33.5395 45.9148 34.2868 45.7703 35.0959L44.6387 41.432C44.5188 42.1035 43.9348 42.5925 43.2527 42.5925ZM43.2527 41.8885C43.5937 41.8885 43.8857 41.644 43.9457 41.3083L45.0773 34.9722C45.1544 34.5407 44.8226 34.1445 44.3843 34.1444H37.3889C37.0478 34.1444 36.7559 34.3889 36.6959 34.7247L35.5642 41.0608C35.4872 41.4922 35.8189 41.8885 36.2572 41.8885H43.2527Z" fill="white"/>
<path d="M186.469 31.5815C185.665 31.5815 184.97 31.4039 184.383 31.0485C183.796 30.6778 183.34 30.1911 183.016 29.5886C182.707 28.9706 182.552 28.2986 182.552 27.5725C182.552 26.1821 183.132 25.1006 184.29 24.3282C185.449 23.5403 187.311 23.0073 189.875 22.7292C189.844 22.3738 189.759 22.0726 189.62 21.8254C189.481 21.5628 189.265 21.3697 188.971 21.2461C188.693 21.107 188.33 21.0375 187.882 21.0375C187.357 21.0375 186.816 21.1379 186.26 21.3388C185.704 21.5396 185.094 21.8254 184.429 22.1962L182.992 19.4849C183.58 19.1295 184.174 18.8283 184.777 18.5811C185.395 18.3184 186.028 18.1176 186.677 17.9786C187.326 17.8241 187.99 17.7468 188.67 17.7468C189.813 17.7468 190.779 17.9631 191.567 18.3957C192.355 18.8283 192.957 19.4926 193.374 20.3886C193.791 21.2692 194 22.397 194 23.772V31.2571H190.64L190.362 29.9362H190.246C189.705 30.4151 189.118 30.8091 188.485 31.1181C187.867 31.427 187.195 31.5815 186.469 31.5815ZM187.882 28.3836C188.299 28.3836 188.662 28.2909 188.971 28.1055C189.28 27.9201 189.582 27.6652 189.875 27.3407V25.2319C189.025 25.3401 188.346 25.4946 187.836 25.6954C187.341 25.8963 186.986 26.128 186.77 26.3906C186.569 26.6533 186.469 26.9391 186.469 27.2481C186.469 27.6343 186.592 27.9201 186.839 28.1055C187.102 28.2909 187.45 28.3836 187.882 28.3836Z" fill="black"/>
<path d="M175.686 31.2574V18.0715H179.811V31.2574H175.686ZM177.749 16.2408C177.053 16.2408 176.497 16.0477 176.08 15.6614C175.663 15.2752 175.454 14.7577 175.454 14.1088C175.454 13.4754 175.663 12.9656 176.08 12.5793C176.497 12.1931 177.053 12 177.749 12C178.428 12 178.977 12.1931 179.394 12.5793C179.826 12.9656 180.043 13.4754 180.043 14.1088C180.043 14.7577 179.826 15.2752 179.394 15.6614C178.977 16.0477 178.428 16.2408 177.749 16.2408Z" fill="black"/>
<path d="M160.433 36.0541V18.0713H163.793L164.094 19.3458H164.164C164.689 18.8823 165.269 18.5038 165.902 18.2103C166.535 17.9013 167.192 17.7468 167.872 17.7468C168.922 17.7468 169.834 18.0249 170.606 18.5811C171.379 19.1372 171.974 19.9174 172.391 20.9216C172.808 21.9104 173.016 23.0845 173.016 24.444C173.016 25.958 172.746 27.2481 172.205 28.314C171.68 29.38 170.993 30.1911 170.143 30.7473C169.309 31.3035 168.42 31.5815 167.478 31.5815C166.922 31.5815 166.381 31.4657 165.856 31.2339C165.346 30.9867 164.867 30.6469 164.419 30.2143L164.558 32.2768V36.0541H160.433ZM166.505 28.1982C166.922 28.1982 167.3 28.0746 167.64 27.8274C167.995 27.5802 168.273 27.1863 168.474 26.6455C168.675 26.1048 168.776 25.3942 168.776 24.5136C168.776 23.7411 168.698 23.1077 168.544 22.6133C168.389 22.1035 168.158 21.725 167.849 21.4778C167.54 21.2306 167.138 21.107 166.644 21.107C166.257 21.107 165.902 21.1997 165.578 21.3851C165.253 21.555 164.913 21.8331 164.558 22.2194V27.4334C164.882 27.727 165.207 27.9278 165.531 28.036C165.871 28.1441 166.196 28.1982 166.505 28.1982Z" fill="black"/>
<path d="M151.402 31.5815C150.289 31.5815 149.239 31.3112 148.25 30.7705C147.261 30.2143 146.458 29.4187 145.84 28.3836C145.238 27.3485 144.936 26.1048 144.936 24.6526C144.936 23.2004 145.238 21.9644 145.84 20.9448C146.458 19.9097 147.261 19.1218 148.25 18.5811C149.239 18.0249 150.289 17.7468 151.402 17.7468C152.236 17.7468 153.039 17.9013 153.812 18.2103C154.584 18.5193 155.272 18.975 155.874 19.5776C156.477 20.1646 156.956 20.883 157.311 21.7327C157.666 22.5824 157.844 23.5557 157.844 24.6526C157.844 26.1048 157.535 27.3485 156.917 28.3836C156.315 29.4187 155.519 30.2143 154.53 30.7705C153.557 31.3112 152.514 31.5815 151.402 31.5815ZM151.402 28.2445C151.912 28.2445 152.329 28.0978 152.653 27.8042C152.993 27.5107 153.24 27.0936 153.395 26.5528C153.549 26.0121 153.626 25.3787 153.626 24.6526C153.626 23.9265 153.549 23.3008 153.395 22.7755C153.24 22.2348 152.993 21.8177 152.653 21.5241C152.329 21.2306 151.912 21.0838 151.402 21.0838C150.892 21.0838 150.467 21.2306 150.127 21.5241C149.803 21.8177 149.556 22.2348 149.386 22.7755C149.231 23.3008 149.154 23.9265 149.154 24.6526C149.154 25.3787 149.231 26.0121 149.386 26.5528C149.556 27.0936 149.803 27.5107 150.127 27.8042C150.467 28.0978 150.892 28.2445 151.402 28.2445Z" fill="black"/>
<path d="M141.206 31.5818C140.109 31.5818 139.213 31.3655 138.517 30.9329C137.838 30.4849 137.336 29.8746 137.011 29.1022C136.702 28.3143 136.548 27.4028 136.548 26.3677V21.2926H134.763V18.2337L136.803 18.0715L137.266 14.5723H140.673V18.0715H143.778V21.2926H140.673V26.3213C140.673 27.0475 140.827 27.5727 141.136 27.8972C141.46 28.2061 141.862 28.3606 142.341 28.3606C142.557 28.3606 142.774 28.3375 142.99 28.2911C143.206 28.2293 143.392 28.1675 143.546 28.1057L144.195 31.0951C143.855 31.2033 143.438 31.3114 142.944 31.4196C142.465 31.5277 141.885 31.5818 141.206 31.5818Z" fill="black"/>
<path d="M127.358 25.9968V23.1001H133.916V25.9968H127.358Z" fill="black"/>
<path d="M117.151 31.5815C116.348 31.5815 115.652 31.4039 115.065 31.0485C114.478 30.6778 114.023 30.1911 113.698 29.5886C113.389 28.9706 113.235 28.2986 113.235 27.5725C113.235 26.1821 113.814 25.1006 114.973 24.3282C116.131 23.5403 117.993 23.0073 120.558 22.7292C120.527 22.3738 120.442 22.0726 120.303 21.8254C120.164 21.5628 119.947 21.3697 119.654 21.2461C119.376 21.107 119.013 21.0375 118.565 21.0375C118.039 21.0375 117.499 21.1379 116.942 21.3388C116.386 21.5396 115.776 21.8254 115.112 22.1962L113.675 19.4849C114.262 19.1295 114.857 18.8283 115.459 18.5811C116.077 18.3184 116.711 18.1176 117.36 17.9786C118.008 17.8241 118.673 17.7468 119.353 17.7468C120.496 17.7468 121.461 17.9631 122.249 18.3957C123.037 18.8283 123.64 19.4926 124.057 20.3886C124.474 21.2692 124.682 22.397 124.682 23.772V31.2571H121.322L121.044 29.9362H120.928C120.388 30.4151 119.801 30.8091 119.167 31.1181C118.549 31.427 117.877 31.5815 117.151 31.5815ZM118.565 28.3836C118.982 28.3836 119.345 28.2909 119.654 28.1055C119.963 27.9201 120.264 27.6652 120.558 27.3407V25.2319C119.708 25.3401 119.028 25.4946 118.518 25.6954C118.024 25.8963 117.669 26.128 117.452 26.3906C117.251 26.6533 117.151 26.9391 117.151 27.2481C117.151 27.6343 117.275 27.9201 117.522 28.1055C117.784 28.2909 118.132 28.3836 118.565 28.3836Z" fill="black"/>
<path d="M99.5567 31.2575V12.7417H103.612V23.0308H103.728L107.621 18.0717H112.14L107.552 23.5638L112.464 31.2575H107.992L105.142 26.252L103.612 27.99V31.2575H99.5567Z" fill="black"/>
<path d="M88.8401 31.5815C88.0368 31.5815 87.3416 31.4039 86.7545 31.0485C86.1674 30.6778 85.7117 30.1911 85.3873 29.5886C85.0783 28.9706 84.9238 28.2986 84.9238 27.5725C84.9238 26.1821 85.5031 25.1006 86.6618 24.3282C87.8205 23.5403 89.6821 23.0073 92.2467 22.7292C92.2158 22.3738 92.1308 22.0726 91.9918 21.8254C91.8527 21.5628 91.6364 21.3697 91.3429 21.2461C91.0648 21.107 90.7018 21.0375 90.2537 21.0375C89.7285 21.0375 89.1877 21.1379 88.6316 21.3388C88.0754 21.5396 87.4652 21.8254 86.8009 22.1962L85.3641 19.4849C85.9512 19.1295 86.5459 18.8283 87.1485 18.5811C87.7664 18.3184 88.3998 18.1176 89.0487 17.9786C89.6976 17.8241 90.3619 17.7468 91.0416 17.7468C92.1849 17.7468 93.1505 17.9631 93.9384 18.3957C94.7263 18.8283 95.3288 19.4926 95.7459 20.3886C96.163 21.2692 96.3716 22.397 96.3716 23.772V31.2571H93.0114L92.7333 29.9362H92.6175C92.0767 30.4151 91.4897 30.8091 90.8563 31.1181C90.2383 31.427 89.5663 31.5815 88.8401 31.5815ZM90.2537 28.3836C90.6709 28.3836 91.0339 28.2909 91.3429 28.1055C91.6519 27.9201 91.9531 27.6652 92.2467 27.3407V25.2319C91.397 25.3401 90.7172 25.4946 90.2074 25.6954C89.713 25.8963 89.3577 26.128 89.1414 26.3906C88.9406 26.6533 88.8401 26.9391 88.8401 27.2481C88.8401 27.6343 88.9637 27.9201 89.2109 28.1055C89.4736 28.2909 89.8212 28.3836 90.2537 28.3836Z" fill="black"/>
<path d="M66.1285 31.2573L63 13.9929H67.2176L68.3068 21.872C68.4304 22.768 68.5462 23.6718 68.6544 24.5833C68.778 25.4948 68.8939 26.414 69.002 27.341H69.0947C69.2646 26.414 69.4346 25.4948 69.6045 24.5833C69.7745 23.6718 69.9444 22.768 70.1143 21.872L71.8755 13.9929H75.3748L77.1591 21.872C77.3291 22.7526 77.4913 23.6564 77.6458 24.5833C77.8157 25.4948 77.9857 26.414 78.1556 27.341H78.2715C78.3796 26.414 78.4878 25.4948 78.5959 24.5833C78.7041 23.6718 78.8122 22.768 78.9204 21.872L80.0559 13.9929H83.9722L80.9828 31.2573H75.7687L74.2161 23.7491C74.077 23.0847 73.9457 22.4127 73.8221 21.7329C73.714 21.0532 73.6213 20.3889 73.544 19.74H73.4514C73.3432 20.3889 73.2273 21.0532 73.1037 21.7329C72.9956 22.4127 72.8797 23.0847 72.7561 23.7491L71.2498 31.2573H66.1285Z" fill="black"/>
</svg>
